<svg xmlns="http://www.w3.org/2000/svg" width="576" height="390" viewBox="0 0 576 390"><rect width="100%" height="100%" fill="#DDDDDD"/><path fill="#999999" d="m129.855 175.785-1.96 11.59q1.85-.38 3.54-.56 1.7-.17 3.27-.17 4.39 0 7.74 1.31t5.62 3.62q2.28 2.31 3.43 5.41 1.16 3.1 1.16 6.68 0 4.42-1.56 8.08t-4.33 6.26q-2.78 2.6-6.57 4.02-3.79 1.43-8.26 1.43-2.62 0-4.96-.54-2.35-.54-4.41-1.45-2.06-.9-3.81-2.08-1.76-1.17-3.14-2.48l2.92-4.04q.93-1.31 2.43-1.31.96 0 1.96.62 1 .61 2.29 1.34t3.05 1.35q1.75.62 4.21.62 2.62 0 4.62-.85t3.33-2.37 2-3.62q.68-2.1.68-4.56 0-4.54-2.64-7.1t-7.8-2.56q-3.96 0-8.12 1.46l-5.93-1.69 4.62-27.03h27.49v4.04q0 2.04-1.27 3.31t-4.31 1.27zm30.65-8.62h38.46v4.12q0 1.85-.38 2.98-.39 1.14-.77 1.91l-21.1 43.43q-.66 1.34-1.85 2.29-1.19.94-3.2.94h-6.89l21.52-42.54q.74-1.31 1.45-2.41t1.6-2.1h-26.65q-.88 0-1.54-.65-.65-.66-.65-1.54zm77.69 0-16.51 20.21-1.93 2.39q1.62-.81 3.49-1.25 1.86-.45 4.02-.45 3.16 0 6.14 1.04t5.25 3.14q2.28 2.1 3.66 5.22 1.39 3.12 1.39 7.28 0 3.88-1.43 7.29-1.42 3.41-4 5.95t-6.22 4q-3.64 1.47-8.03 1.47-4.46 0-8-1.43-3.55-1.42-6.05-3.98t-3.83-6.16-1.33-7.99q0-3.93 1.6-8.07t4.95-8.6l13.28-17.83q.69-.92 2.02-1.58 1.33-.65 3.06-.65zm-14.36 48.51q2.27 0 4.18-.77t3.27-2.16q1.37-1.38 2.14-3.25t.77-4.06q0-2.39-.73-4.29-.73-1.91-2.08-3.24t-3.24-2.02q-1.88-.69-4.15-.69-2.28 0-4.12.77-1.85.77-3.16 2.13-1.31 1.37-2.04 3.24t-.73 4.02q0 2.31.63 4.22.64 1.9 1.89 3.25t3.1 2.1 4.27.75m81.62-5.58-5.04 4.96-13.05-13.05-13.17 13.13-5.04-4.97 13.16-13.2-12.55-12.55 5.01-5.01 12.55 12.55 12.47-12.47 5.08 5-12.51 12.52zm32.03-26.53-5-.89q.58-4 2.23-7.02 1.66-3.02 4.14-5.05 2.48-2.02 5.7-3.04 3.21-1.02 6.91-1.02 3.85 0 6.95 1.1t5.29 3.04q2.2 1.95 3.37 4.56 1.18 2.62 1.18 5.66 0 2.66-.6 4.68t-1.71 3.52q-1.12 1.51-2.78 2.55-1.65 1.03-3.73 1.73 5 1.58 7.47 4.81 2.46 3.23 2.46 8.12 0 4.16-1.54 7.36-1.54 3.19-4.16 5.37-2.61 2.17-6.06 3.29t-7.3 1.12q-4.19 0-7.31-.97-3.12-.96-5.43-2.85-2.31-1.88-3.93-4.62-1.61-2.73-2.77-6.31l4.2-1.73q1.65-.69 3.1-.37 1.44.33 2.1 1.56.69 1.35 1.52 2.66.82 1.31 1.98 2.33 1.15 1.02 2.71 1.65 1.56.64 3.72.64 2.42 0 4.23-.79t3.03-2.06q1.21-1.27 1.81-2.83.59-1.56.59-3.14 0-2-.42-3.64-.42-1.63-1.77-2.79-1.35-1.15-3.87-1.81-2.52-.65-6.76-.65v-6.78q3.51-.04 5.82-.65 2.31-.62 3.67-1.72 1.37-1.09 1.91-2.63t.54-3.39q0-3.93-2.2-5.97-2.19-2.04-5.85-2.04-1.69 0-3.12.48-1.42.48-2.56 1.35-1.13.87-1.9 2.02-.77 1.16-1.16 2.54-.65 1.77-1.71 2.35t-2.99.27m48.21.31q0 4.66 2.4 7.1 2.41 2.45 6.84 2.45 2.31 0 4.12-.74 1.81-.73 3.04-2t1.86-3q.64-1.73.64-3.73 0-2.28-.69-4.07-.7-1.79-1.97-3.02t-3.02-1.89q-1.75-.65-3.83-.65-2.16 0-3.89.71t-2.96 1.99q-1.23 1.27-1.89 3.02-.65 1.75-.65 3.83m-4.66 38.96 17.28-21.6q.66-.81 1.24-1.58.57-.77 1.11-1.54-1.92 1.24-4.23 1.87-2.31.64-4.85.64-2.89 0-5.66-1.01-2.77-1-4.93-3.02t-3.49-5q-1.32-2.99-1.32-6.99 0-3.73 1.38-7.01 1.39-3.27 3.89-5.73 2.5-2.47 6.01-3.89 3.5-1.43 7.74-1.43 4.27 0 7.68 1.35 3.4 1.35 5.81 3.77 2.41 2.43 3.7 5.82t1.29 7.43q0 2.58-.45 4.89-.44 2.31-1.25 4.44-.81 2.14-1.96 4.18-1.16 2.04-2.58 4.04l-12.74 18.18q-.66.92-1.97 1.55-1.31.64-2.96.64zm79.35-27.84q0 7.28-1.56 12.65t-4.32 8.88q-2.75 3.5-6.5 5.21-3.76 1.72-8.11 1.72t-8.06-1.72q-3.72-1.71-6.45-5.21-2.73-3.51-4.27-8.88t-1.54-12.65q0-7.31 1.54-12.66t4.27-8.86q2.73-3.5 6.45-5.21 3.71-1.72 8.06-1.72t8.11 1.72q3.75 1.71 6.5 5.21 2.76 3.51 4.32 8.86t1.56 12.66m-9.82 0q0-6.04-.89-10.01-.88-3.96-2.36-6.31-1.49-2.35-3.41-3.29-1.93-.94-4.01-.94-2.04 0-3.94.94-1.91.94-3.37 3.29t-2.33 6.31q-.87 3.97-.87 10.01 0 6.05.87 10.01.87 3.97 2.33 6.32t3.37 3.29q1.9.94 3.94.94 2.08 0 4.01-.94 1.92-.94 3.41-3.29 1.48-2.35 2.36-6.32.89-3.96.89-10.01"/></svg>